HIERARCHY
ROOT Hips
{
	OFFSET 0.000000 0.000000 0.000000 
	CHANNELS 6 Xposition Yposition Zposition Zrotation Yrotation Xrotation
	JOINT LeftUpLeg
	{
		OFFSET 1.363060 -1.794630 0.839290 
		CHANNELS 3 Zrotation Yrotation Xrotation
		JOINT LeftLeg
		{
			OFFSET 2.448110 -6.726130 0.000000 
			CHANNELS 3 Zrotation Yrotation Xrotation
			JOINT LeftFoot
			{
				OFFSET 2.562200 -7.039590 0.000000 
				CHANNELS 3 Zrotation Yrotation Xrotation
				JOINT LeftToeBase
				{
					OFFSET 0.157640 -0.433110 2.322550 
					CHANNELS 3 Zrotation Yrotation Xrotation
					End Site
					{
						OFFSET 0.000000 0.000000 0.000000 
					}
				}
			}
		}
	}
	JOINT RightUpLeg
	{
		OFFSET -1.305520 -1.794630 0.839290 
		CHANNELS 3 Zrotation Yrotation Xrotation
		JOINT RightLeg
		{
			OFFSET -2.542530 -6.985550 0.000000 
			CHANNELS 3 Zrotation Yrotation Xrotation
			JOINT RightFoot
			{
				OFFSET -2.568260 -7.056230 0.000000 
				CHANNELS 3 Zrotation Yrotation Xrotation
				JOINT RightToeBase
				{
					OFFSET -0.164730 -0.452590 2.363150 
					CHANNELS 3 Zrotation Yrotation Xrotation
					End Site
					{
						OFFSET 0.000000 0.000000 0.000000 
					}
				}
			}
		}
	}
	JOINT Spine
	{
		OFFSET 0.028270 2.035590 -0.193380 
		CHANNELS 3 Zrotation Yrotation Xrotation
		JOINT Spine1
		{
			OFFSET 0.056720 2.048850 -0.042750 
			CHANNELS 3 Zrotation Yrotation Xrotation
			JOINT Neck1
			{
				OFFSET -0.054170 1.746240 0.172020 
				CHANNELS 3 Zrotation Yrotation Xrotation
				JOINT Head
				{
					OFFSET 0.104070 1.761360 -0.123970 
					CHANNELS 3 Zrotation Yrotation Xrotation
					End Site
					{
						OFFSET 0.000000 0.000000 0.000000 
					}
				}
			}
			JOINT LeftArm
			{
				OFFSET 3.362410 1.200890 -0.311210 
				CHANNELS 3 Zrotation Yrotation Xrotation
				JOINT LeftForeArm
				{
					OFFSET 4.983000 -0.000000 -0.000000 
					CHANNELS 3 Zrotation Yrotation Xrotation
					JOINT LeftHand
					{
						OFFSET 3.483560 -0.000000 -0.000000 
						CHANNELS 3 Zrotation Yrotation Xrotation
						JOINT LeftHandIndex1
						{
							OFFSET 0.715260 -0.000000 -0.000000 
							CHANNELS 3 Zrotation Yrotation Xrotation
							End Site
							{
								OFFSET 0.000000 0.000000 0.000000 
							}
						}
					}
				}
			}
			JOINT RightArm
			{
				OFFSET -3.136600 1.374050 -0.404650 
				CHANNELS 3 Zrotation Yrotation Xrotation
				JOINT RightForeArm
				{
					OFFSET -5.241900 -0.000000 -0.000000 
					CHANNELS 3 Zrotation Yrotation Xrotation
					JOINT RightHand
					{
						OFFSET -3.444170 -0.000000 -0.000000 
						CHANNELS 3 Zrotation Yrotation Xrotation
						JOINT RightHandIndex1
						{
							OFFSET -0.622530 -0.000000 -0.000000 
							CHANNELS 3 Zrotation Yrotation Xrotation
							End Site
							{
								OFFSET 0.000000 0.000000 0.000000 
							}
						}
					}
				}
			}
		}
	}
}
MOTION
Frames: 12
Frame Time: 0.041667
-13.637078 16.348652 -4.171385 172.981252 83.104126 -171.344041 -15.921146 -9.397857 -63.881135 18.198857 22.256605 83.440129 0.518678 1.883648 14.271479 1.448300 -7.607400 -21.527900 17.547739 14.426903 -59.898984 -15.776916 -21.930366 76.498837 1.312971 -14.337574 10.300426 -0.428400 4.200800 -11.642200 0.632733 -1.846555 1.937894 -4.734616 -0.089181 -5.140935 6.901167 -0.287086 -12.836718 0.898400 -0.597100 -6.671900 -75.431694 2.527719 25.507064 19.189330 -29.751609 -6.367123 -0.846002 -0.836028 -25.249061 -7.125000 0.000000 0.000000 74.961772 -1.506881 32.523344 -24.469116 35.511904 -8.701558 0.896782 -0.163308 -2.652507 7.125000 0.000000 0.000000 
-13.520211 16.337293 -4.163914 172.923619 83.104194 -171.590997 -16.216510 -9.397995 -64.601100 17.759425 22.210490 82.251569 0.468822 1.808651 13.504663 1.492400 -7.717200 -21.858500 17.758506 14.355438 -59.471730 -15.919251 -21.954993 76.894220 1.334940 -14.418880 10.209645 -0.423800 4.178100 -11.578200 0.628120 -1.813303 1.955380 -4.725727 -0.066036 -5.160584 6.913674 -0.299205 -12.889017 0.907900 -0.603600 -6.700800 -75.459455 2.630039 25.458390 19.134632 -29.701810 -6.341055 -0.845668 -0.836662 -25.232787 -7.125000 0.000000 0.000000 74.963966 -1.466886 32.515382 -24.469761 35.508092 -8.700213 0.897531 -0.157958 -2.731054 7.125000 0.000000 0.000000 
-13.403549 16.325013 -4.156956 172.830843 83.101916 -171.855236 -16.542186 -9.398047 -65.287343 17.278392 22.150205 80.941396 0.428945 1.757723 12.852731 1.542500 -7.839900 -22.228700 17.959294 14.263522 -59.074693 -16.060215 -21.977795 77.285106 1.354002 -14.493414 10.139882 -0.419800 4.158900 -11.524100 0.625162 -1.780509 1.972180 -4.707832 -0.044278 -5.172426 6.931476 -0.311208 -12.935448 0.919300 -0.610100 -6.726900 -75.486649 2.732400 25.415737 19.068539 -29.642337 -6.310162 -0.846807 -0.837988 -25.208388 -7.125000 0.000000 0.000000 74.970792 -1.423869 32.504194 -24.445835 35.482958 -8.686685 0.898447 -0.158089 -2.716428 7.125000 0.000000 0.000000 
-13.287399 16.314472 -4.150406 172.615497 83.097538 -172.216206 -16.914397 -9.397007 -65.919747 16.748324 22.071584 79.487940 0.399192 1.725935 12.327486 1.588900 -7.951600 -22.567000 18.144987 14.143240 -58.699631 -16.192787 -21.996686 77.650066 1.371396 -14.575022 10.097798 -0.416700 4.143500 -11.480800 0.622471 -1.751455 1.987192 -4.684599 -0.025344 -5.176981 6.952021 -0.321472 -12.969538 0.930400 -0.616100 -6.746000 -75.508845 2.834714 25.373480 18.988490 -29.569051 -6.272213 -0.847816 -0.838696 -25.191633 -7.125000 0.000000 0.000000 74.986143 -1.379025 32.477396 -24.419209 35.455277 -8.672087 0.899634 -0.158457 -2.682334 7.125000 0.000000 0.000000 
-13.171658 16.306286 -4.144368 172.415416 83.081793 -172.532129 -17.311426 -9.396838 -66.502057 16.169977 21.971230 77.892209 0.381679 1.699756 11.956167 1.636100 -8.063100 -22.905800 18.337805 13.987074 -58.348896 -16.313871 -22.011361 77.981328 1.390507 -14.672876 10.061739 -0.412100 4.121000 -11.417200 0.621805 -1.727259 1.999985 -4.657633 -0.009859 -5.174512 6.972297 -0.328069 -12.993656 0.940000 -0.620400 -6.759500 -75.530279 2.937224 25.341590 18.901345 -29.489676 -6.231344 -0.850118 -0.838948 -25.162060 -7.125000 0.000000 0.000000 75.009049 -1.337724 32.434191 -24.395630 35.430588 -8.659829 0.900744 -0.159399 -2.651580 7.125000 0.000000 0.000000 
-13.055508 16.300452 -4.139456 172.237849 83.079014 -172.813302 -17.737843 -9.371678 -67.004603 15.545192 21.844500 76.157199 0.377019 1.670242 11.745912 1.685600 -8.177900 -23.255800 18.547980 13.806441 -57.992385 -16.420820 -22.021644 78.270613 1.411285 -14.794154 10.044295 -0.405400 4.087600 -11.323300 0.620961 -1.699767 2.011680 -4.633474 0.006683 -5.168868 6.990122 -0.331794 -13.011054 0.947200 -0.623600 -6.769600 -75.549604 3.042748 25.319897 18.812513 -29.409347 -6.190046 -0.853394 -0.839393 -25.111260 -7.125000 0.000000 0.000000 75.040416 -1.306307 32.387189 -24.353871 35.390874 -8.638593 0.901065 -0.167047 -2.555361 7.125000 0.000000 0.000000 
-12.938948 16.296257 -4.135772 172.173391 83.087677 -172.969525 -18.172559 -9.326131 -67.436143 14.881468 21.689184 74.301583 0.385680 1.636649 11.708434 1.735500 -8.291900 -23.604400 18.786109 13.606703 -57.631973 -16.514523 -22.028156 78.521757 1.435032 -14.929852 10.016473 -0.398500 4.053100 -11.226200 0.620637 -1.668196 2.022691 -4.615413 0.024811 -5.158155 7.005695 -0.332586 -13.024938 0.952800 -0.625300 -6.777700 -75.568594 3.146944 25.298424 18.722169 -29.327139 -6.148099 -0.856625 -0.839781 -25.048309 -7.125000 0.000000 0.000000 75.078330 -1.282702 32.329911 -24.320871 35.359532 -8.622547 0.901532 -0.173470 -2.489128 7.125000 0.000000 0.000000 
-12.821876 16.292982 -4.133521 172.220794 83.104218 -172.996557 -18.606374 -9.272593 -67.799280 14.184271 21.502775 72.336893 0.406538 1.615087 11.854263 1.776900 -8.385000 -23.889600 19.047922 13.389404 -57.271658 -16.596047 -22.031285 78.738904 1.462476 -15.076823 9.966748 -0.391500 4.018000 -11.127200 0.621064 -1.634588 2.033382 -4.602452 0.043591 -5.139943 7.018701 -0.331235 -13.037253 0.957300 -0.625700 -6.783700 -75.588639 3.248233 25.277394 18.637866 -29.250757 -6.109185 -0.859475 -0.840991 -24.976591 -7.125000 0.000000 0.000000 75.117164 -1.261487 32.264961 -24.294618 35.334621 -8.609955 0.901522 -0.178187 -2.454345 7.125000 0.000000 0.000000 
-12.704089 16.290526 -4.132702 172.359927 83.134996 -172.911138 -19.037493 -9.208051 -68.104186 13.460735 21.283489 70.279454 0.440576 1.609148 12.190179 1.814400 -8.468200 -24.145500 19.323967 13.173813 -56.913087 -16.667055 -22.032004 78.927067 1.494518 -15.235700 9.886459 -0.383100 3.974700 -11.005500 0.621699 -1.594838 2.043725 -4.595545 0.064715 -5.116885 7.031641 -0.330853 -13.059101 0.963000 -0.626300 -6.795700 -75.607165 3.348132 25.263126 18.562768 -29.183897 -6.074974 -0.861876 -0.843626 -24.901075 -7.125000 0.000000 0.000000 75.157483 -1.248188 32.205753 -24.267179 35.309875 -8.596639 0.901569 -0.182219 -2.428937 7.125000 0.000000 0.000000 
-12.585994 16.288889 -4.133316 172.560766 83.180895 -172.740139 -19.467177 -9.135379 -68.353262 12.715154 21.029127 68.136754 0.487737 1.633912 12.718850 1.854300 -8.555800 -24.415300 19.602416 12.970668 -56.559650 -16.727532 -22.030543 79.086509 1.529726 -15.401328 9.783874 -0.373700 3.926300 -10.869400 0.622070 -1.549333 2.053299 -4.595004 0.088077 -5.088234 7.044845 -0.334157 -13.087261 0.969600 -0.628600 -6.810800 -75.625945 3.446606 25.248403 18.499351 -29.128606 -6.046433 -0.863170 -0.847616 -24.836225 -7.125000 0.000000 0.000000 75.199153 -1.234835 32.142106 -24.254440 35.298049 -8.590120 0.901698 -0.179888 -2.461413 7.125000 0.000000 0.000000 
-12.466978 16.287661 -4.135363 172.839190 83.243717 -172.469428 -19.895783 -9.047346 -68.551484 11.954989 20.738964 65.925195 0.550050 1.698065 13.450430 1.905900 -8.667300 -24.760200 19.880017 12.787505 -56.209299 -16.779479 -22.027597 79.223012 1.566575 -15.565856 9.662461 -0.363300 3.872000 -10.716900 0.622384 -1.497416 2.062379 -4.599518 0.113970 -5.055207 7.058398 -0.339721 -13.125310 0.977800 -0.631600 -6.831000 -75.648084 3.544573 25.235840 18.450695 -29.088481 -6.025390 -0.864081 -0.852489 -24.781174 -7.125000 0.000000 0.000000 75.238492 -1.224824 32.099040 -24.231637 35.278754 -8.578577 0.902153 -0.180040 -2.468073 7.125000 0.000000 0.000000 
-12.347348 16.286944 -4.138945 173.100452 83.325720 -172.191027 -20.337611 -8.942238 -68.699248 11.183998 20.411630 63.650205 0.631214 1.811173 14.402676 1.972700 -8.808900 -25.199400 20.137552 12.626386 -55.866709 -16.823000 -22.023112 79.336127 1.602117 -15.725674 9.547230 -0.351400 3.808600 -10.538700 0.620996 -1.442274 2.069496 -4.610996 0.141002 -5.022232 7.074273 -0.346896 -13.168882 0.988300 -0.635200 -6.854800 -75.672231 3.646957 25.221420 18.413529 -29.060080 -6.009921 -0.864588 -0.857325 -24.739995 -7.125000 0.000000 0.000000 75.277113 -1.218304 32.073260 -24.217514 35.268030 -8.571122 0.903330 -0.177109 -2.500016 7.125000 0.000000 0.000000 
